<svg width="640" height="530" version="1.1" viewBox="0 0 169.33 140.23" xmlns="http://www.w3.org/2000/svg"><title>Otobi logo</title><defs><linearGradient id="a" x2="1" gradientTransform="matrix(136.63 136.45 -136.63 136.45 25.778 48.101)" gradientUnits="userSpaceOnUse"><stop stop-color="#f2e205" offset="0"/><stop stop-color="#f2b705" offset="1"/></linearGradient></defs><g transform="translate(-16.631 -46.214)"><path d="m35.454 46.214c-10.379 0-18.823 8.43-18.823 18.791v102.65c0 10.361 8.4441 18.791 18.823 18.791h117.27c10.379 0 18.823-8.43 18.823-18.791v-17.122h7.8486c0.84173 0 1.2626-0.44782 1.2626-1.3445v-46.049h4.0404c0.84175 0 1.2626-0.42034 1.2626-1.2606v-2.6894c0-0.89492-0.42086-1.3442-1.2626-1.3442h-38.803c-0.84172 0-1.2626-0.41998-1.2626-1.2603v-6.2187c0-0.72722 0.23777-1.3301 0.71579-1.8064 0.47589-0.4753 1.0798-0.71418 1.8094-0.71418h26.009c0.72848 0 1.3321 0.23888 1.8094 0.71418 0.4759 0.47636 0.71579 1.0792 0.71579 1.8064v1.3449c0 0.84032 0.42086 1.2599 1.2622 1.2599h7.7442c0.84172 0 1.2626-0.41963 1.2626-1.2599v-3.8655c0-1.5126-0.49213-2.7588-1.4732-3.7397-0.98251-0.97914-2.2031-1.4703-3.6618-1.4703h-9.2791v-17.627c4e-5 -10.361-8.4441-18.791-18.823-18.791zm-11.038 121.44v-102.65c0-6.076 4.9516-11.019 11.038-11.019h117.27c6.0861 0 11.038 4.9433 11.038 11.019v17.627h-21.907c-1.4033 0-2.6091 0.49115-3.6188 1.4703-1.0107 0.9809-1.5155 2.2271-1.5155 3.7397v8.7393c0 0.84032-0.42051 1.2603-1.2622 1.2603h-4.7974c-0.78633 0-1.1786-0.39144-1.1786-1.1764v-4.9577c0-1.2321-0.43499-2.2546-1.3042-3.0674-0.87066-0.81108-1.8662-1.2184-2.9884-1.2184h-80.3c-0.73025 0-1.361-0.25192-1.8941-0.75646-0.53376-0.50384-0.7994-1.1201-0.7994-1.8487v-1.4287c0-0.84032-0.42086-1.2603-1.2626-1.2603h-7.9121c-0.84173 0-1.2626 0.41998-1.2626 1.2603v5.0423c0 1.1215 0.42086 2.0879 1.2626 2.899 0.84173 0.81284 1.8514 1.2187 3.0297 1.2187h82.657c0.72886 0 1.36 0.26672 1.8941 0.79839 0.53199 0.53273 0.79975 1.1631 0.79975 1.8903 0 0.72898-0.26776 1.3449-0.79975 1.8487-0.53412 0.50454-1.1652 0.75646-1.8941 0.75646h-85.771c-0.28011 0-0.54751 0.14058-0.7994 0.42034-0.25294 0.28081-0.37888 0.58805-0.37888 0.92382v2.6894c0 0.84031 0.44944 1.2606 1.3466 1.2606h51.008c0.95391 0 1.4316 0.41999 1.4316 1.2603v27.983c0-0.72757-0.2674-1.3445-0.79974-1.8487-0.53446-0.5042-1.1652-0.75646-1.8941-0.75646h-3.1986c-0.89782 0-1.3466-0.41964-1.3466-1.2603v-15.63c0-1.1197-0.37888-2.0442-1.1366-2.7729-0.75777-0.72756-1.6976-1.0922-2.8198-1.0922h-15.487c-1.1783 0-2.1336 0.36468-2.8621 1.0922-0.73024 0.72863-1.0943 1.6532-1.0943 2.7729l-0.0843 17.143c0 0.72862 0.26564 1.3449 0.79974 1.8487 0.53305 0.50419 1.1642 0.75646 1.8937 0.75646h5.1347c0.72813 0 1.36-0.25227 1.8944-0.75646 0.53199-0.50384 0.7994-1.1201 0.7994-1.8487v-14.37c0-0.78394 0.42086-1.1764 1.2629-1.1764h2.6088c0.84173 0 1.2626 0.39251 1.2626 1.1764v27.058c0 0.72897-0.25295 1.3315-0.75777 1.8068-0.50483 0.47635-1.1229 0.71418-1.8514 0.71418h-18.181c-0.7299 0-1.3469-0.23783-1.8517-0.71418-0.50483-0.4753-0.75777-1.0778-0.75777-1.8068v-33.697c0-0.72793-0.25259-1.3445-0.75741-1.8487-0.50518-0.5042-1.1232-0.75647-1.8517-0.75647h-5.2186c-0.72954 0-1.3342 0.25227-1.8094 0.75647-0.47766 0.50419-0.71579 1.1208-0.71579 1.8487v37.31c0 1.1211 0.39229 2.101 1.1786 2.9409 0.78493 0.84032 1.7674 1.2606 2.9457 1.2606h33.248c1.1222 0 2.1043-0.42033 2.946-1.2606 0.84172-0.83997 1.2629-1.8198 1.2629-2.9409v-10.084c0-0.8403 0.44873-1.2606 1.3466-1.2606h3.1986c0.72884 0 1.3596 0.25228 1.8941 0.75647 0.53235 0.50418 0.79975 1.0922 0.79975 1.7645v11.681c0 0.89669 0.39123 1.3445 1.1783 1.3445h5.2183c0.89676 0 1.3473-0.44782 1.3473-1.3445v-44.789c0-0.84031 0.44802-1.2603 1.3466-1.2603h4.6292c0.84173 0 1.2626 0.41999 1.2626 1.2603v44.789c0 0.89669 0.42086 1.3445 1.2626 1.3445h22.389c1.4588 0 2.7072-0.51723 3.7462-1.5548 1.0375-1.0359 1.5568-2.2817 1.5568-3.7393v-26.47c0-1.4562-0.51928-2.689-1.5568-3.6974-1.0389-1.0084-2.2596-1.5122-3.6611-1.5122h-3.9564c-0.95497 0-1.4309 0.44852-1.4309 1.3442v2.521c0 0.56021 0.13935 0.91078 0.42086 1.0503 0.28011 0.14059 0.58879 0.25228 0.92569 0.33578 0.33691 0.0846 0.64454 0.1973 0.92606 0.33648 0.27974 0.14058 0.42051 0.46227 0.42051 0.96681v22.52c0 0.72862-0.25259 1.3445-0.75743 1.8487-0.50482 0.5042-1.1232 0.75612-1.8514 0.75612h-6.5655c-0.95498 0-1.4312-0.4753-1.4312-1.4284v-40.671h24.494c0.84172 0 1.2622 0.41999 1.2622 1.2603v44.789c0 0.89669 0.42087 1.3445 1.263 1.3445h5.303c0.89675 0 1.3462-0.44782 1.3462-1.3445v-44.789c0-0.84031 0.42086-1.2603 1.2626-1.2603h25.588c0.89712 0 1.3466 0.41999 1.3466 1.2603v5.2942c0 0.84032-0.44943 1.2603-1.3466 1.2603h-14.393c-1.4598 0-2.6938 0.50419-3.7034 1.5122-1.0104 1.0087-1.5152 2.2416-1.5152 3.6977v29.075c0 1.4576 0.50483 2.7034 1.5152 3.7393 1.0096 1.0376 2.2437 1.5548 3.7034 1.5548h6.6717v17.122c0 6.076-4.9516 11.019-11.038 11.019h-117.27c-6.0865 0-11.038-4.9432-11.038-11.019m138.65-23.172c-0.50483-0.50419-0.75776-1.1201-0.75776-1.8487v-23.782c0-0.72721 0.25293-1.3575 0.75776-1.8903 0.50482-0.53168 1.1215-0.79841 1.8517-0.79841h6.5656c0.89713 0 1.3466 0.47672 1.3466 1.4287v26.386c0 0.84032-0.44943 1.2603-1.3466 1.2603h-6.5656c-0.73025 0-1.3469-0.25192-1.8517-0.75612" fill="url(#a)"/></g></svg>
